<svg width="200" height="200" viewBox="0 0 200 200" xmlns="http://www.w3.org/2000/svg">
  <defs>
    <linearGradient id="gradient" x1="0%" y1="0%" x2="100%" y2="100%">
      <stop offset="0%" stop-color="#4A00E0" />
      <stop offset="50%" stop-color="#8E2DE2" />
      <stop offset="100%" stop-color="#6A0DAD" />
    </linearGradient>
    <filter id="shadow" x="-20%" y="-20%" width="140%" height="140%">
      <feGaussianBlur in="SourceAlpha" stdDeviation="4" />
      <feOffset dx="2" dy="2" result="offsetblur" />
      <feFlood flood-color="#000000" flood-opacity="0.2" />
      <feComposite in2="offsetblur" operator="in" />
      <feMerge>
        <feMergeNode />
        <feMergeNode in="SourceGraphic" />
      </feMerge>
    </filter>
  </defs>
  
  <!-- Círculo de fundo com gradiente e sombra -->
  <circle cx="100" cy="100" r="95" fill="url(#gradient)" filter="url(#shadow)" />
  
  <!-- Padrão geométrico de fundo -->
  <circle cx="100" cy="100" r="80" fill="none" stroke="#FFFFFF" stroke-width="1" stroke-opacity="0.1" />
  <circle cx="100" cy="100" r="65" fill="none" stroke="#FFFFFF" stroke-width="1" stroke-opacity="0.1" />
  
  <!-- Elemento de gráfico em ascensão -->
  <path d="M65,130 C65,100 85,80 115,85 C135,90 145,110 135,130 Z" fill="#FFFFFF" fill-opacity="0.2" />
  <polyline points="65,130 85,110 105,125 125,95 135,130" fill="none" stroke="#FFFFFF" stroke-width="3" stroke-linecap="round" />
  
  <!-- Moeda/Cifrão estilizado -->
  <circle cx="100" cy="100" r="25" fill="none" stroke="#FFFFFF" stroke-width="2" />
  <path d="M95,90 C95,85 100,85 100,85 C105,85 105,90 105,90 C105,95 100,95 100,95 C95,95 95,100 95,100 C95,105 100,105 100,105 C105,105 105,100 105,100" 
        stroke="#FFFFFF" stroke-width="2" fill="none" />
  <line x1="100" y1="80" x2="100" y2="110" stroke="#FFFFFF" stroke-width="2" />
  
  <!-- Elementos decorativos -->
  <circle cx="70" cy="70" r="5" fill="#FFFFFF" fill-opacity="0.3" />
  <circle cx="130" cy="130" r="5" fill="#FFFFFF" fill-opacity="0.3" />
  <circle cx="130" cy="70" r="5" fill="#FFFFFF" fill-opacity="0.3" />
  <circle cx="70" cy="130" r="5" fill="#FFFFFF" fill-opacity="0.3" />
  
  <!-- Anel exterior com detalhe -->
  <circle cx="100" cy="100" r="95" fill="none" stroke="#FFFFFF" stroke-width="2" stroke-opacity="0.3" />
</svg>